#!OML:ASF X:\für Bonn\!DataBase\2005_08_11_Bastian_Final\c3d\Bastian.ASF
:FULLY-SPECIFIED
:DEGREES
79
root -6.45781 14.8922 1.41728 161.957 -39.8029 -176.131
lowerback 24.1851 -1.63311 0.733745
upperback 6.02284 -2.6607 2.47193
thorax -6.70868 -1.6805 3.1025
lowerneck 2.18942 -18.5108 -9.1024
upperneck -14.8666 -24.477 17.4963
head -1.44229 -12.8992 6.39713
rclavicle 5.46658e-014 1.94809e-014
rhumerus -333.899 2.35035 -398.763
rradius 102.165
rwrist 3.27407
rhand -56.9492 763.633
rfingers 7.12502
rthumb -29.2429 15.9112
lclavicle 5.46658e-014 1.94809e-014
lhumerus 79.2269 -0.635591 47.246
lradius 80.2058
lwrist -132.935
lhand -16.6652 28.824
lfingers 7.12502
lthumb 9.55837 58.5872
rfemur -27.569 -3.17318 7.06558
rtibia 74.5856
rfoot -20.7296 11.1517
rtoes -19.4748
lfemur 0.362479 -7.94193 -12.9475
ltibia 68.7389
lfoot -35.4037 -17.0803
ltoes -9.17867
80
root -6.44878 14.8324 1.34422 162.056 -40.1181 -176.346
lowerback 24.3893 -1.53271 0.770278
upperback 5.8763 -2.49516 2.39331
thorax -6.9865 -1.58655 2.96349
lowerneck 2.39388 -18.54 -8.91438
upperneck -15.3965 -24.503 17.5826
head -1.63899 -12.9474 6.46198
rclavicle -1.59773e-013 3.29983e-014
rhumerus -332.797 0.371351 -396.492
rradius 101.597
rwrist 2.66322
rhand -57.2043 764.962
rfingers 7.12502
rthumb -29.4865 17.2826
lclavicle -1.59773e-013 3.29983e-014
lhumerus 80.9522 0.890625 46.5052
lradius 78.645
lwrist -132.189
lhand -16.2553 29.4608
lfingers 7.12502
lthumb 9.95381 59.2055
rfemur -27.5311 -3.62451 6.92439
rtibia 75.1789
rfoot -21.255 10.9636
rtoes -19.048
lfemur 0.247226 -7.87689 -12.7456
ltibia 69.2411
lfoot -35.2956 -17.5479
ltoes -9.5005
81
root -6.44047 14.7955 1.26232 162.169 -40.4027 -176.596
lowerback 24.4991 -1.40768 0.667718
upperback 5.75796 -2.3354 2.33634
thorax -7.17885 -1.49605 2.92209
lowerneck 2.62255 -18.5205 -8.70584
upperneck -15.9654 -24.4627 17.6601
head -1.86302 -12.9655 6.53498
rclavicle -2.61402e-014 3.97569e-016
rhumerus -331.861 -1.5581 -394.368
rradius 101.016
rwrist 2.15567
rhand -57.4501 766.507
rfingers 7.12502
rthumb -29.7212 18.8694
lclavicle -2.61402e-014 3.97569e-016
lhumerus 82.4989 2.52759 45.5948
lradius 77.1195
lwrist -131.179
lhand -15.527 30.0464
lfingers 7.12502
lthumb 10.6564 59.7561
rfemur -27.3631 -3.96779 6.82487
rtibia 75.578
rfoot -21.7408 10.6825
rtoes -18.6792
lfemur 0.334149 -7.80114 -12.5717
ltibia 69.3675
lfoot -35.0961 -17.9851
ltoes -9.93203
82
root -6.43055 14.7934 1.17091 162.294 -40.7223 -176.845
lowerback 24.5819 -1.29169 0.436583
upperback 5.63135 -2.2168 2.31391
thorax -7.35951 -1.423 3.00282
lowerneck 2.731 -18.4644 -8.53467
upperneck -16.4102 -24.3749 17.7166
head -2.03569 -12.9509 6.58749
rclavicle -1.80894e-014 -1.07344e-014
rhumerus -331.123 -3.3746 -392.413
rradius 100.452
rwrist 1.87586
rhand -57.7532 768.09
rfingers 7.12502
rthumb -30.0104 20.5047
lclavicle -1.80894e-014 -1.07344e-014
lhumerus 83.8504 4.18319 44.665
lradius 75.6467
lwrist -129.96
lhand -14.6533 30.5348
lfingers 7.12502
lthumb 11.4991 60.1994
rfemur -27.0076 -4.21833 6.79985
rtibia 75.743
rfoot -22.1373 10.3033
rtoes -18.0924
lfemur 0.623942 -7.79573 -12.4069
ltibia 69.074
lfoot -34.8184 -18.3606
ltoes -10.4028
83
root -6.4224 14.8046 1.06878 162.49 -41.0359 -177.163
lowerback 24.5289 -1.154 0.0593563
upperback 5.51673 -2.1064 2.30274
thorax -7.45309 -1.35137 3.1748
lowerneck 2.79473 -18.393 -8.44074
upperneck -16.7856 -24.2693 17.7933
head -2.17048 -12.922 6.64355
rclavicle -3.17062e-014 -2.22639e-014
rhumerus -330.637 -5.08725 -390.565
rradius 99.8518
rwrist 1.822
rhand -58.2451 769.745
rfingers 7.12502
rthumb -30.4796 22.2453
lclavicle -3.17062e-014 -2.22639e-014
lhumerus 85.0505 5.72638 43.8245
lradius 74.3464
lwrist -128.668
lhand -13.6602 30.7879
lfingers 7.12502
lthumb 12.4568 60.3967
rfemur -26.5619 -4.44467 6.7674
rtibia 75.7463
rfoot -22.5507 9.85734
rtoes -17.8343
lfemur 1.08805 -7.82392 -12.2876
ltibia 68.44
lfoot -34.4767 -18.7799
ltoes -10.4172
84
root -6.4168 14.8328 0.955301 162.646 -41.3544 -177.417
lowerback 24.4001 -1.04914 -0.334969
upperback 5.37164 -2.03791 2.28329
thorax -7.54003 -1.2963 3.35752
lowerneck 2.84523 -18.3029 -8.31987
upperneck -17.012 -24.1436 17.7801
head -2.2775 -12.8723 6.66233
rclavicle -4.09496e-014 -1.86858e-014
rhumerus -330.245 -6.52573 -388.968
rradius 99.1109
rwrist 2.12498
rhand -58.9022 771.233
rfingers 7.12502
rthumb -31.1061 23.8522
lclavicle -4.09496e-014 -1.86858e-014
lhumerus 86.001 7.12919 42.95
lradius 73.2625
lwrist -127.239
lhand -12.6001 30.9015
lfingers 7.12502
lthumb 13.4787 60.4453
rfemur -25.9598 -4.67092 6.83304
rtibia 75.557
rfoot -22.9435 9.31986
rtoes -17.7815
lfemur 1.72701 -7.87934 -12.0945
ltibia 67.4903
lfoot -34.0793 -19.2862
ltoes -10.1367
85
root -6.41261 14.878 0.833158 162.83 -41.6953 -177.673
lowerback 24.2986 -0.997412 -0.720078
upperback 5.06346 -2.01841 2.16891
thorax -7.82269 -1.24944 3.45146
lowerneck 3.1578 -18.191 -8.18594
upperneck -17.0694 -23.9946 17.7615
head -2.37995 -12.8075 6.69515
rclavicle 1.18227e-013 9.14409e-015
rhumerus -330.234 -7.58712 -387.545
rradius 98.5266
rwrist 2.51301
rhand -59.6093 772.472
rfingers 7.12502
rthumb -31.7798 25.2219
lclavicle 1.18227e-013 9.14409e-015
lhumerus 86.6371 8.21507 41.9324
lradius 72.3669
lwrist -125.691
lhand -11.5926 30.9185
lfingers 7.12502
lthumb 14.4496 60.3954
rfemur -25.2441 -4.9365 6.92835
rtibia 75.1944
rfoot -23.3031 8.72507
rtoes -17.9998
lfemur 2.47199 -7.92464 -11.8811
ltibia 66.2618
lfoot -33.6155 -19.6463
ltoes -10.4807
86
root -6.41276 14.9438 0.703006 163.033 -42.0749 -177.939
lowerback 24.0687 -0.95527 -1.13897
upperback 4.75614 -2.02 2.04487
thorax -8.03594 -1.21122 3.55412
lowerneck 3.47199 -18.0906 -8.10454
upperneck -17.0151 -23.8642 17.7377
head -2.44151 -12.7444 6.72102
rclavicle -4.22914e-014 3.61788e-014
rhumerus -330.46 -8.439 -386.154
rradius 98.1292
rwrist 2.99719
rhand -60.4444 773.371
rfingers 7.12502
rthumb -32.5748 26.2824
lclavicle -4.22914e-014 3.61788e-014
lhumerus 87.1781 9.09007 41.011
lradius 71.5808
lwrist -124.182
lhand -10.6726 30.9685
lfingers 7.12502
lthumb 15.3358 60.3798
rfemur -24.3506 -5.23313 7.01822
rtibia 74.6107
rfoot -23.6171 8.15607
rtoes -18.2806
lfemur 3.35275 -7.98233 -11.6804
ltibia 64.7411
lfoot -33.0264 -19.9637
ltoes -10.9324
